<svg width="271" height="61" viewBox="0 0 271 61" fill="none" xmlns="http://www.w3.org/2000/svg">
<path d="M26.3542 39.6667C36.4794 39.6667 44.6875 31.4586 44.6875 21.3333C44.6875 11.2081 36.4794 3 26.3542 3H0.6875V39.6667H26.3542Z" fill="#AEEAFB"/>
<path d="M0.6875 3L44.6875 58H15.3542L0.6875 39.6667V3Z" fill="#3498DB"/>
<path d="M29.7671 39.3496C28.6613 39.5578 27.5205 39.6667 26.3542 39.6667H0.6875V3L29.7671 39.3496Z" fill="#63BBE9"/>
<path d="M74.8625 43.3501C72.2958 43.3501 70.0908 42.8368 68.2475 41.8101C66.4275 40.7601 65.0275 39.2901 64.0475 37.4001C63.0675 35.4868 62.5775 33.2351 62.5775 30.6451C62.5775 28.0551 63.0675 25.8151 64.0475 23.9251C65.0275 22.0351 66.4275 20.5768 68.2475 19.5501C70.0908 18.5001 72.2958 17.9751 74.8625 17.9751C76.5191 17.9751 78.0825 18.2318 79.5525 18.7451C81.0458 19.2584 82.2708 19.9934 83.2275 20.9501L81.7575 24.5201C80.7075 23.6334 79.6341 22.9918 78.5375 22.5951C77.4408 22.1751 76.2625 21.9651 75.0025 21.9651C72.5058 21.9651 70.6041 22.7234 69.2975 24.2401C67.9908 25.7334 67.3375 27.8684 67.3375 30.6451C67.3375 33.4218 67.9908 35.5684 69.2975 37.0851C70.6041 38.6018 72.5058 39.3601 75.0025 39.3601C76.2625 39.3601 77.4408 39.1618 78.5375 38.7651C79.6341 38.3451 80.7075 37.6918 81.7575 36.8051L83.2275 40.3751C82.2708 41.3084 81.0458 42.0434 79.5525 42.5801C78.0825 43.0934 76.5191 43.3501 74.8625 43.3501Z" fill="#63BBE9"/>
<path d="M93.2919 43.3501C91.5185 43.3501 89.9785 42.9884 88.6719 42.2651C87.3652 41.5418 86.3502 40.5151 85.6269 39.1851C84.9035 37.8318 84.5419 36.2451 84.5419 34.4251C84.5419 32.6051 84.9035 31.0301 85.6269 29.7001C86.3502 28.3701 87.3652 27.3434 88.6719 26.6201C89.9785 25.8968 91.5185 25.5351 93.2919 25.5351C95.0652 25.5351 96.6052 25.8968 97.9119 26.6201C99.2185 27.3434 100.234 28.3701 100.957 29.7001C101.68 31.0301 102.042 32.6051 102.042 34.4251C102.042 36.2451 101.68 37.8318 100.957 39.1851C100.234 40.5151 99.2185 41.5418 97.9119 42.2651C96.6052 42.9884 95.0652 43.3501 93.2919 43.3501ZM93.2919 40.0251C94.5985 40.0251 95.6485 39.5584 96.4419 38.6251C97.2352 37.6684 97.6319 36.2684 97.6319 34.4251C97.6319 32.5584 97.2352 31.1701 96.4419 30.2601C95.6485 29.3268 94.5985 28.8601 93.2919 28.8601C91.9852 28.8601 90.9352 29.3268 90.1419 30.2601C89.3485 31.1701 88.9519 32.5584 88.9519 34.4251C88.9519 36.2684 89.3485 37.6684 90.1419 38.6251C90.9352 39.5584 91.9852 40.0251 93.2919 40.0251Z" fill="#63BBE9"/>
<path d="M105.723 43.0001V25.8851H109.993V28.5101C110.506 27.5768 111.218 26.8534 112.128 26.3401C113.038 25.8034 114.088 25.5351 115.278 25.5351C117.845 25.5351 119.525 26.6551 120.318 28.8951C120.855 27.8451 121.625 27.0284 122.628 26.4451C123.631 25.8384 124.775 25.5351 126.058 25.5351C129.908 25.5351 131.833 27.8801 131.833 32.5701V43.0001H127.458V32.7451C127.458 31.4384 127.236 30.4818 126.793 29.8751C126.373 29.2684 125.65 28.9651 124.623 28.9651C123.48 28.9651 122.581 29.3734 121.928 30.1901C121.275 30.9834 120.948 32.0918 120.948 33.5151V43.0001H116.573V32.7451C116.573 31.4384 116.351 30.4818 115.908 29.8751C115.488 29.2684 114.776 28.9651 113.773 28.9651C112.63 28.9651 111.731 29.3734 111.078 30.1901C110.425 30.9834 110.098 32.0918 110.098 33.5151V43.0001H105.723Z" fill="#63BBE9"/>
<path d="M136.416 43.0001V25.8851H140.686V28.5101C141.2 27.5768 141.911 26.8534 142.821 26.3401C143.731 25.8034 144.781 25.5351 145.971 25.5351C148.538 25.5351 150.218 26.6551 151.011 28.8951C151.548 27.8451 152.318 27.0284 153.321 26.4451C154.325 25.8384 155.468 25.5351 156.751 25.5351C160.601 25.5351 162.526 27.8801 162.526 32.5701V43.0001H158.151V32.7451C158.151 31.4384 157.93 30.4818 157.486 29.8751C157.066 29.2684 156.343 28.9651 155.316 28.9651C154.173 28.9651 153.275 29.3734 152.621 30.1901C151.968 30.9834 151.641 32.0918 151.641 33.5151V43.0001H147.266V32.7451C147.266 31.4384 147.045 30.4818 146.601 29.8751C146.181 29.2684 145.47 28.9651 144.466 28.9651C143.323 28.9651 142.425 29.3734 141.771 30.1901C141.118 30.9834 140.791 32.0918 140.791 33.5151V43.0001H136.416Z" fill="#63BBE9"/>
<path d="M172.675 43.3501C171.438 43.3501 170.33 43.1168 169.35 42.6501C168.393 42.1601 167.635 41.5068 167.075 40.6901C166.538 39.8734 166.27 38.9518 166.27 37.9251C166.27 36.6651 166.596 35.6734 167.25 34.9501C167.903 34.2034 168.965 33.6668 170.435 33.3401C171.905 33.0134 173.876 32.8501 176.35 32.8501H177.575V32.1151C177.575 30.9484 177.318 30.1084 176.805 29.5951C176.291 29.0818 175.428 28.8251 174.215 28.8251C173.258 28.8251 172.278 28.9768 171.275 29.2801C170.271 29.5601 169.256 30.0034 168.23 30.6101L166.97 27.6351C167.576 27.2151 168.288 26.8534 169.105 26.5501C169.945 26.2234 170.82 25.9784 171.73 25.8151C172.663 25.6284 173.538 25.5351 174.355 25.5351C176.851 25.5351 178.706 26.1184 179.92 27.2851C181.133 28.4284 181.74 30.2134 181.74 32.6401V43.0001H177.645V40.2701C177.248 41.2268 176.618 41.9851 175.755 42.5451C174.891 43.0818 173.865 43.3501 172.675 43.3501ZM173.585 40.3401C174.728 40.3401 175.673 39.9434 176.42 39.1501C177.19 38.3568 177.575 37.3534 177.575 36.1401V35.3701H176.385C174.191 35.3701 172.663 35.5451 171.8 35.8951C170.96 36.2218 170.54 36.8284 170.54 37.7151C170.54 38.4851 170.808 39.1151 171.345 39.6051C171.881 40.0951 172.628 40.3401 173.585 40.3401Z" fill="#63BBE9"/>
<path d="M186.18 43.0001V25.8851H190.45V28.5451C191.034 27.5651 191.815 26.8184 192.795 26.3051C193.799 25.7918 194.919 25.5351 196.155 25.5351C200.192 25.5351 202.21 27.8801 202.21 32.5701V43.0001H197.835V32.7801C197.835 31.4501 197.579 30.4818 197.065 29.8751C196.575 29.2684 195.805 28.9651 194.755 28.9651C193.472 28.9651 192.445 29.3734 191.675 30.1901C190.929 30.9834 190.555 32.0451 190.555 33.3751V43.0001H186.18Z" fill="#63BBE9"/>
<path d="M213.234 43.3501C211.74 43.3501 210.422 42.9884 209.279 42.2651C208.159 41.5418 207.284 40.5151 206.654 39.1851C206.024 37.8318 205.709 36.2451 205.709 34.4251C205.709 32.5818 206.024 31.0068 206.654 29.7001C207.284 28.3701 208.159 27.3434 209.279 26.6201C210.422 25.8968 211.74 25.5351 213.234 25.5351C214.447 25.5351 215.544 25.8034 216.524 26.3401C217.504 26.8768 218.239 27.5884 218.729 28.4751V18.3251H223.104V43.0001H218.834V40.1651C218.367 41.1451 217.632 41.9268 216.629 42.5101C215.625 43.0701 214.494 43.3501 213.234 43.3501ZM214.459 40.0251C215.765 40.0251 216.815 39.5584 217.609 38.6251C218.402 37.6684 218.799 36.2684 218.799 34.4251C218.799 32.5584 218.402 31.1701 217.609 30.2601C216.815 29.3268 215.765 28.8601 214.459 28.8601C213.152 28.8601 212.102 29.3268 211.309 30.2601C210.515 31.1701 210.119 32.5584 210.119 34.4251C210.119 36.2684 210.515 37.6684 211.309 38.6251C212.102 39.5584 213.152 40.0251 214.459 40.0251Z" fill="#63BBE9"/>
<path d="M234.255 41.6001V34.4951H227.325V31.4151H234.255V24.5201H237.475V31.4151H244.405V34.4951H237.475V41.6001H234.255Z" fill="#63BBE9"/>
<path d="M249.046 43.0001V18.3251H259.756C262.463 18.3251 264.551 18.9784 266.021 20.2851C267.491 21.5684 268.226 23.3768 268.226 25.7101C268.226 27.5534 267.748 29.0818 266.791 30.2951C265.835 31.4851 264.458 32.2901 262.661 32.7101C263.851 33.0834 264.831 33.9818 265.601 35.4051L269.731 43.0001H264.796L260.526 35.1251C260.106 34.3551 259.605 33.8301 259.021 33.5501C258.461 33.2701 257.738 33.1301 256.851 33.1301H253.526V43.0001H249.046ZM253.526 29.8051H258.986C262.253 29.8051 263.886 28.4751 263.886 25.8151C263.886 23.1784 262.253 21.8601 258.986 21.8601H253.526V29.8051Z" fill="#63BBE9"/>
</svg>
