<svg width="243" height="61" viewBox="0 0 243 61" fill="none" xmlns="http://www.w3.org/2000/svg">
<path d="M42.6634 30.4999C38.2204 35.464 31.7636 38.5881 24.5772 38.5881C17.3908 38.5881 10.9341 35.464 6.49109 30.4999C10.9341 25.5357 17.3908 22.4116 24.5772 22.4116C31.7636 22.4116 38.2204 25.5357 42.6634 30.4999Z" fill="white"/>
<path fill-rule="evenodd" clip-rule="evenodd" d="M0.3125 46.6763C0.3125 33.2753 11.1762 22.4116 24.5772 22.4116C17.3908 22.4116 10.9341 25.5357 6.4911 30.4999C10.9341 35.464 17.3909 38.5881 24.5772 38.5881C31.7636 38.5881 38.2203 35.464 42.6634 30.4999C46.5056 34.7928 48.8419 40.4617 48.8419 46.6763V55.843C48.8419 57.0342 47.8762 57.9999 46.685 57.9999H2.46936C1.27816 57.9999 0.3125 57.0342 0.3125 55.843V46.6763ZM42.6634 30.4999C42.6633 30.4999 42.6634 30.4999 42.6634 30.4999V30.4999Z" fill="#84D4F4"/>
<path fill-rule="evenodd" clip-rule="evenodd" d="M15.4758 36.8236C12.0111 35.4207 8.94418 33.2408 6.4911 30.5C10.9341 25.5358 17.3908 22.4118 24.5772 22.4118C31.7636 22.4118 38.2203 25.5358 42.6634 30.5C42.6633 30.5 42.6634 30.5 42.6634 30.5C46.5056 26.2071 48.8419 20.5381 48.8419 14.3235V5.15687C48.8419 3.96567 47.8762 3 46.685 3L2.46936 3C1.27816 3 0.312501 3.96566 0.312501 5.15686L0.3125 14.3235C0.312498 24.5059 6.58443 33.2234 15.4758 36.8236Z" fill="#3498DB"/>
<path d="M86.7426 18.5701V43.0001H81.8427V32.6051H71.3777V43.0001H66.4777V18.5701H71.3777V28.6151H81.8427V18.5701H86.7426Z" fill="#63BBE9"/>
<path d="M100.176 43.3151C98.3089 43.3151 96.6289 42.9068 95.1355 42.0901C93.6422 41.2501 92.4639 40.0718 91.6005 38.5551C90.7605 37.0384 90.3405 35.2884 90.3405 33.3051C90.3405 31.3218 90.7722 29.5718 91.6355 28.0551C92.5222 26.5384 93.7239 25.3718 95.2405 24.5551C96.7572 23.7151 98.4489 23.2951 100.316 23.2951C102.182 23.2951 103.874 23.7151 105.391 24.5551C106.907 25.3718 108.097 26.5384 108.961 28.0551C109.847 29.5718 110.291 31.3218 110.291 33.3051C110.291 35.2884 109.836 37.0384 108.926 38.5551C108.039 40.0718 106.826 41.2501 105.286 42.0901C103.769 42.9068 102.066 43.3151 100.176 43.3151ZM100.176 39.0451C101.062 39.0451 101.891 38.8351 102.661 38.4151C103.454 37.9718 104.084 37.3184 104.551 36.4551C105.017 35.5918 105.251 34.5418 105.251 33.3051C105.251 31.4618 104.761 30.0501 103.781 29.0701C102.824 28.0668 101.646 27.5651 100.246 27.5651C98.8455 27.5651 97.6672 28.0668 96.7105 29.0701C95.7772 30.0501 95.3105 31.4618 95.3105 33.3051C95.3105 35.1484 95.7655 36.5718 96.6755 37.5751C97.6089 38.5551 98.7755 39.0451 100.176 39.0451Z" fill="#63BBE9"/>
<path d="M132.19 23.6101V43.0001H127.255V40.5501C126.625 41.3901 125.797 42.0551 124.77 42.5451C123.767 43.0118 122.67 43.2451 121.48 43.2451C119.963 43.2451 118.622 42.9301 117.455 42.3001C116.288 41.6468 115.367 40.7018 114.69 39.4651C114.037 38.2051 113.71 36.7118 113.71 34.9851V23.6101H118.61V34.2851C118.61 35.8251 118.995 37.0151 119.765 37.8551C120.535 38.6718 121.585 39.0801 122.915 39.0801C124.268 39.0801 125.33 38.6718 126.1 37.8551C126.87 37.0151 127.255 35.8251 127.255 34.2851V23.6101H132.19Z" fill="#63BBE9"/>
<path d="M141.924 26.6201C142.554 25.5934 143.371 24.7884 144.374 24.2051C145.401 23.6218 146.568 23.3301 147.874 23.3301V28.4751H146.579C145.039 28.4751 143.873 28.8368 143.079 29.5601C142.309 30.2834 141.924 31.5434 141.924 33.3401V43.0001H137.024V23.6101H141.924V26.6201Z" fill="#63BBE9"/>
<path d="M158.77 23.2951C160.217 23.2951 161.488 23.5868 162.585 24.1701C163.682 24.7301 164.545 25.4651 165.175 26.3751V23.6101H170.11V43.1401C170.11 44.9368 169.748 46.5351 169.025 47.9351C168.302 49.3584 167.217 50.4784 165.77 51.2951C164.323 52.1351 162.573 52.5551 160.52 52.5551C157.767 52.5551 155.503 51.9134 153.73 50.6301C151.98 49.3468 150.988 47.5968 150.755 45.3801H155.62C155.877 46.2668 156.425 46.9668 157.265 47.4801C158.128 48.0168 159.167 48.2851 160.38 48.2851C161.803 48.2851 162.958 47.8534 163.845 46.9901C164.732 46.1501 165.175 44.8668 165.175 43.1401V40.1301C164.545 41.0401 163.67 41.7984 162.55 42.4051C161.453 43.0118 160.193 43.3151 158.77 43.3151C157.137 43.3151 155.643 42.8951 154.29 42.0551C152.937 41.2151 151.863 40.0368 151.07 38.5201C150.3 36.9801 149.915 35.2184 149.915 33.2351C149.915 31.2751 150.3 29.5368 151.07 28.0201C151.863 26.5034 152.925 25.3368 154.255 24.5201C155.608 23.7034 157.113 23.2951 158.77 23.2951ZM165.175 33.3051C165.175 32.1151 164.942 31.1001 164.475 30.2601C164.008 29.3968 163.378 28.7434 162.585 28.3001C161.792 27.8334 160.94 27.6001 160.03 27.6001C159.12 27.6001 158.28 27.8218 157.51 28.2651C156.74 28.7084 156.11 29.3618 155.62 30.2251C155.153 31.0651 154.92 32.0684 154.92 33.2351C154.92 34.4018 155.153 35.4284 155.62 36.3151C156.11 37.1784 156.74 37.8434 157.51 38.3101C158.303 38.7768 159.143 39.0101 160.03 39.0101C160.94 39.0101 161.792 38.7884 162.585 38.3451C163.378 37.8784 164.008 37.2251 164.475 36.3851C164.942 35.5218 165.175 34.4951 165.175 33.3051Z" fill="#63BBE9"/>
<path d="M179.796 17.1001V43.0001H174.896V17.1001H179.796Z" fill="#63BBE9"/>
<path d="M183.377 33.2351C183.377 31.2751 183.762 29.5368 184.532 28.0201C185.325 26.5034 186.387 25.3368 187.717 24.5201C189.07 23.7034 190.575 23.2951 192.232 23.2951C193.678 23.2951 194.938 23.5868 196.012 24.1701C197.108 24.7534 197.983 25.4884 198.637 26.3751V23.6101H203.572V43.0001H198.637V40.1651C198.007 41.0751 197.132 41.8334 196.012 42.4401C194.915 43.0234 193.643 43.3151 192.197 43.3151C190.563 43.3151 189.07 42.8951 187.717 42.0551C186.387 41.2151 185.325 40.0368 184.532 38.5201C183.762 36.9801 183.377 35.2184 183.377 33.2351ZM198.637 33.3051C198.637 32.1151 198.403 31.1001 197.937 30.2601C197.47 29.3968 196.84 28.7434 196.047 28.3001C195.253 27.8334 194.402 27.6001 193.492 27.6001C192.582 27.6001 191.742 27.8218 190.972 28.2651C190.202 28.7084 189.572 29.3618 189.082 30.2251C188.615 31.0651 188.382 32.0684 188.382 33.2351C188.382 34.4018 188.615 35.4284 189.082 36.3151C189.572 37.1784 190.202 37.8434 190.972 38.3101C191.765 38.7768 192.605 39.0101 193.492 39.0101C194.402 39.0101 195.253 38.7884 196.047 38.3451C196.84 37.8784 197.47 37.2251 197.937 36.3851C198.403 35.5218 198.637 34.4951 198.637 33.3051Z" fill="#63BBE9"/>
<path d="M215.777 43.3151C214.191 43.3151 212.767 43.0351 211.507 42.4751C210.247 41.8918 209.244 41.1101 208.497 40.1301C207.774 39.1501 207.377 38.0651 207.307 36.8751H212.242C212.336 37.6218 212.697 38.2401 213.327 38.7301C213.981 39.2201 214.786 39.4651 215.742 39.4651C216.676 39.4651 217.399 39.2784 217.912 38.9051C218.449 38.5318 218.717 38.0534 218.717 37.4701C218.717 36.8401 218.391 36.3734 217.737 36.0701C217.107 35.7434 216.092 35.3934 214.692 35.0201C213.246 34.6701 212.056 34.3084 211.122 33.9351C210.212 33.5618 209.419 32.9901 208.742 32.2201C208.089 31.4501 207.762 30.4118 207.762 29.1051C207.762 28.0318 208.066 27.0518 208.672 26.1651C209.302 25.2784 210.189 24.5784 211.332 24.0651C212.499 23.5518 213.864 23.2951 215.427 23.2951C217.737 23.2951 219.581 23.8784 220.957 25.0451C222.334 26.1884 223.092 27.7401 223.232 29.7001H218.542C218.472 28.9301 218.146 28.3234 217.562 27.8801C217.002 27.4134 216.244 27.1801 215.287 27.1801C214.401 27.1801 213.712 27.3434 213.222 27.6701C212.756 27.9968 212.522 28.4518 212.522 29.0351C212.522 29.6884 212.849 30.1901 213.502 30.5401C214.156 30.8668 215.171 31.2051 216.547 31.5551C217.947 31.9051 219.102 32.2668 220.012 32.6401C220.922 33.0134 221.704 33.5968 222.357 34.3901C223.034 35.1601 223.384 36.1868 223.407 37.4701C223.407 38.5901 223.092 39.5934 222.462 40.4801C221.856 41.3668 220.969 42.0668 219.802 42.5801C218.659 43.0701 217.317 43.3151 215.777 43.3151Z" fill="#63BBE9"/>
<path d="M234.85 43.3151C233.263 43.3151 231.84 43.0351 230.58 42.4751C229.32 41.8918 228.316 41.1101 227.57 40.1301C226.846 39.1501 226.45 38.0651 226.38 36.8751H231.315C231.408 37.6218 231.77 38.2401 232.4 38.7301C233.053 39.2201 233.858 39.4651 234.815 39.4651C235.748 39.4651 236.471 39.2784 236.985 38.9051C237.521 38.5318 237.79 38.0534 237.79 37.4701C237.79 36.8401 237.463 36.3734 236.81 36.0701C236.18 35.7434 235.165 35.3934 233.765 35.0201C232.318 34.6701 231.128 34.3084 230.195 33.9351C229.285 33.5618 228.491 32.9901 227.815 32.2201C227.161 31.4501 226.835 30.4118 226.835 29.1051C226.835 28.0318 227.138 27.0518 227.745 26.1651C228.375 25.2784 229.261 24.5784 230.405 24.0651C231.571 23.5518 232.936 23.2951 234.5 23.2951C236.81 23.2951 238.653 23.8784 240.03 25.0451C241.406 26.1884 242.165 27.7401 242.305 29.7001H237.615C237.545 28.9301 237.218 28.3234 236.635 27.8801C236.075 27.4134 235.316 27.1801 234.36 27.1801C233.473 27.1801 232.785 27.3434 232.295 27.6701C231.828 27.9968 231.595 28.4518 231.595 29.0351C231.595 29.6884 231.921 30.1901 232.575 30.5401C233.228 30.8668 234.243 31.2051 235.62 31.5551C237.02 31.9051 238.175 32.2668 239.085 32.6401C239.995 33.0134 240.776 33.5968 241.43 34.3901C242.106 35.1601 242.456 36.1868 242.48 37.4701C242.48 38.5901 242.165 39.5934 241.535 40.4801C240.928 41.3668 240.041 42.0668 238.875 42.5801C237.731 43.0701 236.39 43.3151 234.85 43.3151Z" fill="#63BBE9"/>
</svg>
