<svg width="183" height="61" viewBox="0 0 183 61" fill="none" xmlns="http://www.w3.org/2000/svg">
<path d="M16.6594 28.3976C17.6872 24.5623 21.6296 20.6199 25.4649 19.5921L49.3762 13.1841C53.2115 12.1563 55.4874 14.4322 54.4596 18.2676L48.0516 42.1788C47.0238 46.0141 43.0814 49.9565 39.2461 50.9843L15.3349 57.3923C11.4995 58.4201 9.22361 56.1442 10.2514 52.3088L16.6594 28.3976Z" fill="#84D4F4"/>
<path d="M7.07355 18.8117C8.10138 14.9763 12.0438 11.034 15.8791 10.0061L39.7903 3.59817C43.6257 2.57034 45.9016 4.84628 44.8738 8.68162L38.4658 32.5928C37.438 36.4282 33.4956 40.3705 29.6603 41.3984L5.74903 47.8063C1.9137 48.8342 -0.36224 46.5582 0.665591 42.7229L7.07355 18.8117Z" fill="#63BBE9"/>
<path d="M76.9676 38.2664H84.8076V42.8864H70.9826V18.3164H76.9676V38.2664Z" fill="#63BBE9"/>
<path d="M85.7723 33.0864C85.7723 31.0797 86.1456 29.3181 86.8923 27.8014C87.6623 26.2847 88.7006 25.1181 90.0073 24.3014C91.314 23.4847 92.7723 23.0764 94.3823 23.0764C95.759 23.0764 96.9606 23.3564 97.9873 23.9164C99.0373 24.4764 99.8423 25.2114 100.402 26.1214V23.3564H106.387V42.8864H100.402V40.1214C99.819 41.0314 99.0023 41.7664 97.9523 42.3264C96.9256 42.8864 95.724 43.1664 94.3473 43.1664C92.7606 43.1664 91.314 42.7581 90.0073 41.9414C88.7006 41.1014 87.6623 39.9231 86.8923 38.4064C86.1456 36.8664 85.7723 35.0931 85.7723 33.0864ZM100.402 33.1214C100.402 31.6281 99.9823 30.4497 99.1423 29.5864C98.3256 28.7231 97.3223 28.2914 96.1323 28.2914C94.9423 28.2914 93.9273 28.7231 93.0873 29.5864C92.2706 30.4264 91.8623 31.5931 91.8623 33.0864C91.8623 34.5797 92.2706 35.7697 93.0873 36.6564C93.9273 37.5197 94.9423 37.9514 96.1323 37.9514C97.3223 37.9514 98.3256 37.5197 99.1423 36.6564C99.9823 35.7931 100.402 34.6147 100.402 33.1214Z" fill="#63BBE9"/>
<path d="M129.967 23.3564L117.717 52.1614H111.277L115.757 42.2214L107.812 23.3564H114.497L119.012 35.5714L123.492 23.3564H129.967Z" fill="#63BBE9"/>
<path d="M149.841 32.8064C149.841 33.3664 149.806 33.9497 149.736 34.5564H136.191C136.285 35.7697 136.67 36.7031 137.346 37.3564C138.046 37.9864 138.898 38.3014 139.901 38.3014C141.395 38.3014 142.433 37.6714 143.016 36.4114H149.386C149.06 37.6947 148.465 38.8497 147.601 39.8764C146.761 40.9031 145.7 41.7081 144.416 42.2914C143.133 42.8747 141.698 43.1664 140.111 43.1664C138.198 43.1664 136.495 42.7581 135.001 41.9414C133.508 41.1247 132.341 39.9581 131.501 38.4414C130.661 36.9247 130.241 35.1514 130.241 33.1214C130.241 31.0914 130.65 29.3181 131.466 27.8014C132.306 26.2847 133.473 25.1181 134.966 24.3014C136.46 23.4847 138.175 23.0764 140.111 23.0764C142.001 23.0764 143.681 23.4731 145.151 24.2664C146.621 25.0597 147.765 26.1914 148.581 27.6614C149.421 29.1314 149.841 30.8464 149.841 32.8064ZM143.716 31.2314C143.716 30.2047 143.366 29.3881 142.666 28.7814C141.966 28.1747 141.091 27.8714 140.041 27.8714C139.038 27.8714 138.186 28.1631 137.486 28.7464C136.81 29.3297 136.39 30.1581 136.226 31.2314H143.716Z" fill="#63BBE9"/>
<path d="M158.284 26.6114C158.984 25.5381 159.859 24.6981 160.909 24.0914C161.959 23.4614 163.125 23.1464 164.409 23.1464V29.4814H162.764C161.27 29.4814 160.15 29.8081 159.404 30.4614C158.657 31.0914 158.284 32.2114 158.284 33.8214V42.8864H152.299V23.3564H158.284V26.6114Z" fill="#63BBE9"/>
<path d="M174.515 43.1664C172.811 43.1664 171.295 42.8747 169.965 42.2914C168.635 41.7081 167.585 40.9147 166.815 39.9114C166.045 38.8847 165.613 37.7414 165.52 36.4814H171.435C171.505 37.1581 171.82 37.7064 172.38 38.1264C172.94 38.5464 173.628 38.7564 174.445 38.7564C175.191 38.7564 175.763 38.6164 176.16 38.3364C176.58 38.0331 176.79 37.6481 176.79 37.1814C176.79 36.6214 176.498 36.2131 175.915 35.9564C175.331 35.6764 174.386 35.3731 173.08 35.0464C171.68 34.7197 170.513 34.3814 169.58 34.0314C168.646 33.6581 167.841 33.0864 167.165 32.3164C166.488 31.5231 166.15 30.4614 166.15 29.1314C166.15 28.0114 166.453 26.9964 167.06 26.0864C167.69 25.1531 168.6 24.4181 169.79 23.8814C171.003 23.3447 172.438 23.0764 174.095 23.0764C176.545 23.0764 178.47 23.6831 179.87 24.8964C181.293 26.1097 182.11 27.7197 182.32 29.7264H176.79C176.696 29.0497 176.393 28.5131 175.88 28.1164C175.39 27.7197 174.736 27.5214 173.92 27.5214C173.22 27.5214 172.683 27.6614 172.31 27.9414C171.936 28.1981 171.75 28.5597 171.75 29.0264C171.75 29.5864 172.041 30.0064 172.625 30.2864C173.231 30.5664 174.165 30.8464 175.425 31.1264C176.871 31.4997 178.05 31.8731 178.96 32.2464C179.87 32.5964 180.663 33.1797 181.34 33.9964C182.04 34.7897 182.401 35.8631 182.425 37.2164C182.425 38.3597 182.098 39.3864 181.445 40.2964C180.815 41.1831 179.893 41.8831 178.68 42.3964C177.49 42.9097 176.101 43.1664 174.515 43.1664Z" fill="#63BBE9"/>
</svg>
