<svg width="213" height="61" viewBox="0 0 213 61" fill="none" xmlns="http://www.w3.org/2000/svg">
<rect x="0.812531" y="24.5" width="12" height="12" fill="#3498DB"/>
<rect x="36.8125" y="36.5" width="12" height="12" transform="rotate(180 36.8125 36.5)" fill="#2677BC"/>
<path d="M12.8127 24.5L24.8126 12.5V24.5L12.8127 36.5V24.5Z" fill="#D6F6FD"/>
<path d="M24.8125 36.5L12.8125 48.5L12.8125 36.5L24.8125 24.5L24.8125 36.5Z" fill="#AEEAFB"/>
<path d="M0.812531 24.5L24.8125 0.5V12.5L12.8125 24.5H0.812531Z" fill="#84D4F4"/>
<path d="M36.8125 36.5L12.8125 60.5L12.8125 48.5L24.8125 36.5L36.8125 36.5Z" fill="#63BBE9"/>
<path d="M62.9475 43.35C61.0575 43.35 59.2259 43.0817 57.4525 42.545C55.7025 42.0083 54.3142 41.2967 53.2875 40.41L54.8625 36.875C55.8659 37.6683 57.0909 38.3216 58.5375 38.835C60.0075 39.325 61.4775 39.57 62.9475 39.57C64.7675 39.57 66.1209 39.2783 67.0075 38.695C67.9175 38.1117 68.3725 37.3417 68.3725 36.385C68.3725 35.685 68.1159 35.1133 67.6025 34.67C67.1125 34.2033 66.4825 33.8416 65.7125 33.585C64.9425 33.3283 63.8925 33.0366 62.5625 32.71C60.6959 32.2666 59.1792 31.8233 58.0125 31.38C56.8692 30.9366 55.8775 30.2483 55.0375 29.315C54.2209 28.3583 53.8125 27.075 53.8125 25.465C53.8125 24.1116 54.1742 22.8866 54.8975 21.79C55.6442 20.67 56.7525 19.7833 58.2225 19.13C59.7159 18.4766 61.5359 18.15 63.6825 18.15C65.1759 18.15 66.6459 18.3366 68.0925 18.71C69.5392 19.0833 70.7875 19.62 71.8375 20.32L70.4025 23.855C69.3292 23.225 68.2092 22.7466 67.0425 22.42C65.8759 22.0933 64.7442 21.93 63.6475 21.93C61.8509 21.93 60.5092 22.2333 59.6225 22.84C58.7592 23.4466 58.3275 24.2516 58.3275 25.255C58.3275 25.955 58.5725 26.5266 59.0625 26.97C59.5759 27.4133 60.2175 27.7633 60.9875 28.02C61.7575 28.2766 62.8075 28.5683 64.1375 28.895C65.9575 29.315 67.4509 29.7583 68.6175 30.225C69.7842 30.6683 70.7759 31.3566 71.5925 32.29C72.4325 33.2233 72.8525 34.4833 72.8525 36.07C72.8525 37.4233 72.4792 38.6483 71.7325 39.745C71.0092 40.8417 69.9009 41.7167 68.4075 42.37C66.9142 43.0233 65.0942 43.35 62.9475 43.35Z" fill="#63BBE9"/>
<path d="M76.9442 24.31H81.3192V43H76.9442V24.31ZM79.1492 21.23C78.3559 21.23 77.6909 20.985 77.1542 20.495C76.6176 19.9816 76.3492 19.3516 76.3492 18.605C76.3492 17.8583 76.6176 17.24 77.1542 16.75C77.6909 16.2366 78.3559 15.98 79.1492 15.98C79.9426 15.98 80.6076 16.225 81.1442 16.715C81.6809 17.1816 81.9492 17.7766 81.9492 18.5C81.9492 19.27 81.6809 19.9233 81.1442 20.46C80.6309 20.9733 79.9659 21.23 79.1492 21.23Z" fill="#63BBE9"/>
<path d="M92.8364 43.245C91.3198 43.245 89.8381 43.0467 88.3914 42.65C86.9448 42.2533 85.7898 41.7517 84.9264 41.145L86.6064 37.82C87.4464 38.38 88.4498 38.835 89.6164 39.185C90.8064 39.5117 91.9731 39.675 93.1164 39.675C95.7298 39.675 97.0364 38.9867 97.0364 37.61C97.0364 36.9567 96.6981 36.5017 96.0214 36.245C95.3681 35.9883 94.3064 35.7433 92.8364 35.51C91.2964 35.2766 90.0364 35.0083 89.0564 34.705C88.0998 34.4016 87.2598 33.8766 86.5364 33.13C85.8364 32.36 85.4864 31.2983 85.4864 29.945C85.4864 28.1716 86.2214 26.76 87.6914 25.71C89.1848 24.6366 91.1914 24.1 93.7114 24.1C94.9948 24.1 96.2781 24.2516 97.5614 24.555C98.8448 24.835 99.8948 25.22 100.711 25.71L99.0314 29.035C97.4448 28.1016 95.6598 27.635 93.6764 27.635C92.3931 27.635 91.4131 27.8333 90.7364 28.23C90.0831 28.6033 89.7564 29.105 89.7564 29.735C89.7564 30.435 90.1064 30.9366 90.8064 31.24C91.5298 31.52 92.6381 31.7883 94.1314 32.045C95.6248 32.2783 96.8498 32.5466 97.8064 32.85C98.7631 33.1533 99.5798 33.6666 100.256 34.39C100.956 35.1133 101.306 36.14 101.306 37.47C101.306 39.22 100.548 40.62 99.0314 41.67C97.5148 42.72 95.4498 43.245 92.8364 43.245Z" fill="#63BBE9"/>
<path d="M122.232 24.31L113.482 44.505C112.666 46.535 111.674 47.9583 110.507 48.775C109.341 49.615 107.929 50.035 106.272 50.035C105.339 50.035 104.417 49.8833 103.507 49.58C102.597 49.2767 101.851 48.8567 101.267 48.32L103.017 45.1C103.437 45.4967 103.927 45.8117 104.487 46.045C105.071 46.2783 105.654 46.395 106.237 46.395C107.007 46.395 107.637 46.1967 108.127 45.8C108.641 45.4033 109.107 44.7383 109.527 43.805L109.842 43.07L101.687 24.31H106.237L112.117 38.135L118.032 24.31H122.232Z" fill="#63BBE9"/>
<path d="M135.327 24.1C137.147 24.1 138.768 24.4966 140.192 25.29C141.638 26.0833 142.77 27.2033 143.587 28.65C144.403 30.0966 144.812 31.765 144.812 33.655C144.812 35.545 144.403 37.225 143.587 38.695C142.77 40.1417 141.638 41.2617 140.192 42.055C138.768 42.8483 137.147 43.245 135.327 43.245C132.807 43.245 130.812 42.405 129.342 40.725V49.79H124.967V24.31H129.132V26.76C129.855 25.8733 130.742 25.2083 131.792 24.765C132.865 24.3216 134.043 24.1 135.327 24.1ZM134.837 39.5C136.447 39.5 137.765 38.9633 138.792 37.89C139.842 36.8166 140.367 35.405 140.367 33.655C140.367 31.905 139.842 30.4933 138.792 29.42C137.765 28.3466 136.447 27.81 134.837 27.81C133.787 27.81 132.842 28.055 132.002 28.545C131.162 29.0116 130.497 29.6883 130.007 30.575C129.517 31.4616 129.272 32.4883 129.272 33.655C129.272 34.8216 129.517 35.8483 130.007 36.735C130.497 37.6216 131.162 38.31 132.002 38.8C132.842 39.2667 133.787 39.5 134.837 39.5Z" fill="#63BBE9"/>
<path d="M159.566 24.1C161.922 24.1 163.812 24.7883 165.236 26.165C166.659 27.5416 167.371 29.5833 167.371 32.29V43H162.996V32.85C162.996 31.2166 162.611 29.9916 161.841 29.175C161.071 28.335 159.974 27.915 158.551 27.915C156.941 27.915 155.669 28.405 154.736 29.385C153.802 30.3416 153.336 31.73 153.336 33.55V43H148.961V17.03H153.336V26.48C154.059 25.71 154.946 25.1266 155.996 24.73C157.069 24.31 158.259 24.1 159.566 24.1Z" fill="#63BBE9"/>
<path d="M191.016 24.31V43H186.851V40.62C186.151 41.46 185.276 42.1133 184.226 42.58C183.176 43.0233 182.044 43.245 180.831 43.245C178.334 43.245 176.362 42.5567 174.916 41.18C173.492 39.78 172.781 37.715 172.781 34.985V24.31H177.156V34.39C177.156 36.07 177.529 37.33 178.276 38.17C179.046 38.9867 180.131 39.395 181.531 39.395C183.094 39.395 184.331 38.9167 185.241 37.96C186.174 36.98 186.641 35.58 186.641 33.76V24.31H191.016Z" fill="#63BBE9"/>
<path d="M202.519 43.245C201.002 43.245 199.521 43.0467 198.074 42.65C196.627 42.2533 195.472 41.7517 194.609 41.145L196.289 37.82C197.129 38.38 198.132 38.835 199.299 39.185C200.489 39.5117 201.656 39.675 202.799 39.675C205.412 39.675 206.719 38.9867 206.719 37.61C206.719 36.9567 206.381 36.5017 205.704 36.245C205.051 35.9883 203.989 35.7433 202.519 35.51C200.979 35.2766 199.719 35.0083 198.739 34.705C197.782 34.4016 196.942 33.8766 196.219 33.13C195.519 32.36 195.169 31.2983 195.169 29.945C195.169 28.1716 195.904 26.76 197.374 25.71C198.867 24.6366 200.874 24.1 203.394 24.1C204.677 24.1 205.961 24.2516 207.244 24.555C208.527 24.835 209.577 25.22 210.394 25.71L208.714 29.035C207.127 28.1016 205.342 27.635 203.359 27.635C202.076 27.635 201.096 27.8333 200.419 28.23C199.766 28.6033 199.439 29.105 199.439 29.735C199.439 30.435 199.789 30.9366 200.489 31.24C201.212 31.52 202.321 31.7883 203.814 32.045C205.307 32.2783 206.532 32.5466 207.489 32.85C208.446 33.1533 209.262 33.6666 209.939 34.39C210.639 35.1133 210.989 36.14 210.989 37.47C210.989 39.22 210.231 40.62 208.714 41.67C207.197 42.72 205.132 43.245 202.519 43.245Z" fill="#63BBE9"/>
</svg>
