<svg width="18" height="19" viewBox="0 0 18 19" fill="none" xmlns="http://www.w3.org/2000/svg">
<path fill-rule="evenodd" clip-rule="evenodd" d="M8.99999 12.9288C8.82899 12.9288 8.65874 12.8711 8.51999 12.7548L4.01999 9.00482C3.70199 8.74007 3.65849 8.26682 3.92399 7.94882C4.18874 7.63082 4.66124 7.58807 4.97999 7.85282L9.00824 11.2098L13.0297 7.97357C13.3522 7.71407 13.8247 7.76507 14.0842 8.08757C14.3437 8.41007 14.2927 8.88182 13.9702 9.14207L9.47024 12.7631C9.33299 12.8733 9.16649 12.9288 8.99999 12.9288" fill="#FAFAFA"/>
<mask id="mask0_2_5757" style="mask-type:luminance" maskUnits="userSpaceOnUse" x="3" y="7" width="12" height="6">
<path fill-rule="evenodd" clip-rule="evenodd" d="M8.99999 12.9288C8.82899 12.9288 8.65874 12.8711 8.51999 12.7548L4.01999 9.00482C3.70199 8.74007 3.65849 8.26682 3.92399 7.94882C4.18874 7.63082 4.66124 7.58807 4.97999 7.85282L9.00824 11.2098L13.0297 7.97357C13.3522 7.71407 13.8247 7.76507 14.0842 8.08757C14.3437 8.41007 14.2927 8.88182 13.9702 9.14207L9.47024 12.7631C9.33299 12.8733 9.16649 12.9288 8.99999 12.9288" fill="white"/>
</mask>
<g mask="url(#mask0_2_5757)">
<rect y="0.928711" width="18" height="18" fill="#FAFAFA"/>
</g>
</svg>
