<svg width="14" height="13" viewBox="0 0 14 13" fill="none" xmlns="http://www.w3.org/2000/svg">
<path fill-rule="evenodd" clip-rule="evenodd" d="M1.16667 7.08317H11.0542L8.02667 10.7165C7.73167 11.0698 7.78 11.5957 8.13334 11.8898C8.4875 12.1848 9.0125 12.1365 9.3075 11.7832L13.4742 6.78317C13.5067 6.744 13.5225 6.69817 13.5467 6.65484C13.5667 6.61984 13.5908 6.58984 13.6058 6.5515C13.6433 6.45567 13.6658 6.35484 13.6658 6.25317C13.6658 6.25234 13.6667 6.25067 13.6667 6.24984C13.6667 6.249 13.6658 6.24734 13.6658 6.2465C13.6658 6.14484 13.6433 6.044 13.6058 5.94817C13.5908 5.90984 13.5667 5.87984 13.5467 5.84484C13.5225 5.8015 13.5067 5.75567 13.4742 5.7165L9.3075 0.716504C9.14167 0.519004 8.905 0.416504 8.66667 0.416504C8.47834 0.416504 8.28917 0.479837 8.13334 0.609837C7.78 0.904004 7.73167 1.42984 8.02667 1.78317L11.0542 5.4165H1.16667C0.706669 5.4165 0.333336 5.78984 0.333336 6.24984C0.333336 6.70984 0.706669 7.08317 1.16667 7.08317" fill="#FF6F61"/>
</svg>
