<svg width="24" height="25" viewBox="0 0 24 25" fill="none" xmlns="http://www.w3.org/2000/svg">
<path fill-rule="evenodd" clip-rule="evenodd" d="M19 11.5H5V7.5C5 6.949 5.449 6.5 6 6.5H7V7.5C7 8.05 7.45 8.5 8 8.5C8.55 8.5 9 8.05 9 7.5V6.5H15V7.5C15 8.05 15.45 8.5 16 8.5C16.55 8.5 17 8.05 17 7.5V6.5H18C18.551 6.5 19 6.949 19 7.5V11.5ZM16 17.5H12C11.45 17.5 11 17.05 11 16.5C11 15.95 11.45 15.5 12 15.5H16C16.55 15.5 17 15.95 17 16.5C17 17.05 16.55 17.5 16 17.5ZM8 17.5C7.45 17.5 7 17.05 7 16.5C7 15.95 7.45 15.5 8 15.5C8.55 15.5 9 15.95 9 16.5C9 17.05 8.55 17.5 8 17.5ZM18 4.5H17V3.5C17 2.95 16.55 2.5 16 2.5C15.45 2.5 15 2.95 15 3.5V4.5H9V3.5C9 2.95 8.55 2.5 8 2.5C7.45 2.5 7 2.95 7 3.5V4.5H6C4.346 4.5 3 5.846 3 7.5V19.5C3 21.154 4.346 22.5 6 22.5H18C19.654 22.5 21 21.154 21 19.5V7.5C21 5.846 19.654 4.5 18 4.5Z" fill="#3498DB"/>
<mask id="mask0_1007_1350" style="mask-type:luminance" maskUnits="userSpaceOnUse" x="3" y="2" width="18" height="21">
<path fill-rule="evenodd" clip-rule="evenodd" d="M19 11.5H5V7.5C5 6.949 5.449 6.5 6 6.5H7V7.5C7 8.05 7.45 8.5 8 8.5C8.55 8.5 9 8.05 9 7.5V6.5H15V7.5C15 8.05 15.45 8.5 16 8.5C16.55 8.5 17 8.05 17 7.5V6.5H18C18.551 6.5 19 6.949 19 7.5V11.5ZM16 17.5H12C11.45 17.5 11 17.05 11 16.5C11 15.95 11.45 15.5 12 15.5H16C16.55 15.5 17 15.95 17 16.5C17 17.05 16.55 17.5 16 17.5ZM8 17.5C7.45 17.5 7 17.05 7 16.5C7 15.95 7.45 15.5 8 15.5C8.55 15.5 9 15.95 9 16.5C9 17.05 8.55 17.5 8 17.5ZM18 4.5H17V3.5C17 2.95 16.55 2.5 16 2.5C15.45 2.5 15 2.95 15 3.5V4.5H9V3.5C9 2.95 8.55 2.5 8 2.5C7.45 2.5 7 2.95 7 3.5V4.5H6C4.346 4.5 3 5.846 3 7.5V19.5C3 21.154 4.346 22.5 6 22.5H18C19.654 22.5 21 21.154 21 19.5V7.5C21 5.846 19.654 4.5 18 4.5Z" fill="white"/>
</mask>
<g mask="url(#mask0_1007_1350)">
<rect y="0.5" width="24" height="24" fill="#3498DB"/>
</g>
</svg>
