<svg width="15" height="21" viewBox="0 0 15 21" fill="none" xmlns="http://www.w3.org/2000/svg">
<path d="M7.5 0.5C5.57 0.5 4 2.07 4 4C4 5.93 5.57 7.5 7.5 7.5C9.43 7.5 11 5.93 11 4C11 2.07 9.43 0.5 7.5 0.5ZM3.5 8.5C1.843 8.5 0.5 9.843 0.5 11.5V19.5C0.5 20.052 0.948 20.5 1.5 20.5H6.5V17.5H3.5V14.5C3.5 13.948 3.948 13.5 4.5 13.5H4.50977C5.05677 13.5 5.5 13.9432 5.5 14.4902V15.5H9.5V14.5C9.5 13.948 9.948 13.5 10.5 13.5H10.5098C11.0568 13.5 11.5 13.9432 11.5 14.4902V17.5H8.5V20.5H13.5C14.052 20.5 14.5 20.052 14.5 19.5V11.5C14.5 9.843 13.157 8.5 11.5 8.5H10.1406L9.875 8.69727C8.465 9.74727 6.53305 9.74727 5.12305 8.69727L4.85938 8.5H3.5Z" fill="#3498DB"/>
</svg>
