<svg width="39" height="38" viewBox="0 0 39 38" fill="none" xmlns="http://www.w3.org/2000/svg">
<path fill-rule="evenodd" clip-rule="evenodd" d="M27 16.875H21.375V11.25C21.375 10.2131 20.535 9.375 19.5 9.375C18.465 9.375 17.625 10.2131 17.625 11.25V18.75C17.625 19.7869 18.465 20.625 19.5 20.625H27C28.0369 20.625 28.875 19.7869 28.875 18.75C28.875 17.7131 28.0369 16.875 27 16.875M19.5 33.75C11.2294 33.75 4.5 27.0206 4.5 18.75C4.5 10.4794 11.2294 3.75 19.5 3.75C27.7706 3.75 34.5 10.4794 34.5 18.75C34.5 27.0206 27.7706 33.75 19.5 33.75M19.5 0C9.16125 0 0.75 8.41125 0.75 18.75C0.75 29.0887 9.16125 37.5 19.5 37.5C29.8387 37.5 38.25 29.0887 38.25 18.75C38.25 8.41125 29.8387 0 19.5 0" fill="#231F20"/>
</svg>
